{
    "asset" : {
        "generator" : "Khronos glTF Blender I/O v1.8.19",
        "version" : "2.0"
    },
    "scene" : 0,
    "scenes" : [
        {
            "name" : "Scene",
            "nodes" : [
                0
            ]
        }
    ],
    "nodes" : [
        {
            "mesh" : 0,
            "name" : "\u718a\u732b01"
        }
    ],
    "materials" : [
        {
            "doubleSided" : true,
            "name" : "Mat3d66-1109753-62-4401",
            "pbrMetallicRoughness" : {
                "baseColorTexture" : {
                    "index" : 0
                },
                "metallicFactor" : 0,
                "roughnessFactor" : 0.8937007784843445
            }
        }
    ],
    "meshes" : [
        {
            "name" : "Obj3d66-1109753-111-453",
            "primitives" : [
                {
                    "attributes" : {
                        "POSITION" : 0,
                        "NORMAL" : 1,
                        "TEXCOORD_0" : 2
                    },
                    "indices" : 3,
                    "material" : 0
                }
            ]
        }
    ],
    "textures" : [
        {
            "sampler" : 0,
            "source" : 0
        }
    ],
    "images" : [
        {
            "bufferView" : 4,
            "mimeType" : "image/png",
            "name" : "3d66Model-1109753-files-37"
        }
    ],
    "accessors" : [
        {
            "bufferView" : 0,
            "componentType" : 5126,
            "count" : 4164,
            "max" : [
                0.326486736536026,
                0.9080411195755005,
                0.7117599248886108
            ],
            "min" : [
                -0.326486736536026,
                7.60337570682168e-10,
                -0.7117599248886108
            ],
            "type" : "VEC3"
        },
        {
            "bufferView" : 1,
            "componentType" : 5126,
            "count" : 4164,
            "type" : "VEC3"
        },
        {
            "bufferView" : 2,
            "componentType" : 5126,
            "count" : 4164,
            "type" : "VEC2"
        },
        {
            "bufferView" : 3,
            "componentType" : 5123,
            "count" : 20214,
            "type" : "SCALAR"
        }
    ],
    "bufferViews" : [
        {
            "buffer" : 0,
            "byteLength" : 49968,
            "byteOffset" : 0
        },
        {
            "buffer" : 0,
            "byteLength" : 49968,
            "byteOffset" : 49968
        },
        {
            "buffer" : 0,
            "byteLength" : 33312,
            "byteOffset" : 99936
        },
        {
            "buffer" : 0,
            "byteLength" : 40428,
            "byteOffset" : 133248
        },
        {
            "buffer" : 0,
            "byteLength" : 1596369,
            "byteOffset" : 173676
        }
    ],
    "samplers" : [
        {
            "magFilter" : 9729,
            "minFilter" : 9987
        }
    ],
    "buffers" : [
        {
            "byteLength" : 1770048,
            "uri" : "data:application/octet-stream;base64,"
        }
    ]
}
